<?xml version="1.0" encoding="iso-8859-1"?>
<!-- Generator: Adobe Illustrator 19.0.0, SVG Export Plug-In . SVG Version: 6.00 Build 0)  -->
<svg version="1.1" id="Capa_1" xmlns="http://www.w3.org/2000/svg" xmlns:xlink="http://www.w3.org/1999/xlink" x="0px" y="0px"
	 viewBox="0 0 490.667 490.667" style="enable-background:new 0 0 490.667 490.667;" xml:space="preserve">
<g>
	<path style="fill:#B0BEC5;" d="M96,245.333H74.667C33.429,245.333,0,278.763,0,320s33.429,74.667,74.667,74.667H96
		c5.891,0,10.667-4.776,10.667-10.667V256C106.667,250.109,101.891,245.333,96,245.333z"/>
	<path style="fill:#B0BEC5;" d="M416,245.333h-21.333c-5.891,0-10.667,4.776-10.667,10.667v128c0,5.891,4.776,10.667,10.667,10.667
		H416c41.237,0,74.667-33.429,74.667-74.667S457.237,245.333,416,245.333z"/>
</g>
<path style="fill:#CFD8DC;" d="M96,245.333h298.667c5.891,0,10.667,4.776,10.667,10.667v128c0,5.891-4.776,10.667-10.667,10.667H96
	c-5.891,0-10.667-4.776-10.667-10.667V256C85.333,250.109,90.109,245.333,96,245.333z"/>
<g>
	<path style="fill:#FFC107;" d="M245.333,192c-5.891,0-10.667-4.776-10.667-10.667v-74.667c0-5.891,4.776-10.667,10.667-10.667
		c5.891,0,10.667,4.776,10.667,10.667v74.667C256,187.224,251.224,192,245.333,192z"/>
	<path style="fill:#FFC107;" d="M288,202.667c-5.891-0.004-10.663-4.784-10.659-10.675c0.001-1.143,0.185-2.278,0.547-3.363
		l21.333-64c1.649-5.655,7.571-8.903,13.227-7.253c5.655,1.649,8.903,7.571,7.253,13.227c-0.076,0.259-0.161,0.515-0.256,0.768
		l-21.333,64C296.662,199.725,292.589,202.663,288,202.667z"/>
	<path style="fill:#FFC107;" d="M202.667,202.667c-4.589-0.003-8.662-2.942-10.112-7.296l-21.333-64
		c-2.074-5.514,0.715-11.665,6.229-13.739c5.514-2.074,11.665,0.715,13.739,6.229c0.095,0.253,0.18,0.509,0.256,0.768l21.333,64
		c1.862,5.589-1.16,11.629-6.749,13.491C204.945,202.481,203.81,202.666,202.667,202.667z"/>
	<path style="fill:#FFC107;" d="M160,224c-4.044,0.008-7.745-2.272-9.557-5.888l-21.333-42.667
		c-2.633-5.272-0.494-11.681,4.779-14.315s11.681-0.494,14.315,4.779l21.333,42.667c2.634,5.269,0.498,11.676-4.771,14.311
		c-0.003,0.001-0.005,0.003-0.008,0.004C163.28,223.628,161.651,224.008,160,224z"/>
	<path style="fill:#FFC107;" d="M330.667,224c-1.652,0.001-3.282-0.386-4.757-1.131c-5.271-2.63-7.413-9.035-4.783-14.307
		c0.001-0.003,0.003-0.005,0.004-0.008l21.333-42.667c2.633-5.272,9.042-7.412,14.315-4.779c5.273,2.633,7.412,9.042,4.779,14.315
		l0,0l-21.333,42.667C338.418,221.715,334.716,224.004,330.667,224z"/>
</g>
<g>
</g>
<g>
</g>
<g>
</g>
<g>
</g>
<g>
</g>
<g>
</g>
<g>
</g>
<g>
</g>
<g>
</g>
<g>
</g>
<g>
</g>
<g>
</g>
<g>
</g>
<g>
</g>
<g>
</g>
</svg>
